<svg width="69" height="252" viewBox="0 0 69 252" fill="none" xmlns="http://www.w3.org/2000/svg">
<path d="M68.558 26.0739C68.558 37.9399 63.2161 48.3508 50.6281 50.9738V42.0079C58.1441 39.8349 60.7711 32.2279 60.7711 25.7079C60.7711 20.6369 58.5061 11.7599 51.1711 11.7599C45.3711 11.7599 42.4771 16.2889 41.1191 22.4489L39.3981 30.0549C37.2241 40.1059 33.4211 52.1548 20.1981 52.1548C7.42906 52.1548 0.546082 40.2008 0.546082 27.1618C0.546082 11.6758 9.05906 1.89385 22.0991 0.172852V9.22885C13.0431 10.9499 8.33307 17.1999 8.33307 27.3409C8.33307 37.1208 12.8611 42.6478 19.3821 42.6478C26.3551 42.6478 29.0721 36.6688 30.9741 28.5168L32.6951 20.3669C34.6871 11.3129 39.7591 2.34586 50.6251 2.34586C63.2161 2.34686 68.558 15.4789 68.558 26.0739Z" fill="#E63E3A"/>
<path d="M62.6711 62.8431V71.0851H50.446V80.3201H43.8351V71.0851H14.9471C9.87508 71.0851 8.60809 71.4471 8.60809 76.1561V80.3201H1.7251V74.3441C1.7251 65.0171 3.80805 62.8441 13.951 62.8441H43.8361V55.144H50.4471V62.8441L62.6711 62.8431Z" fill="#E63E3A"/>
<path d="M8.69806 117.813C4.07906 115.006 0.548035 110.568 0.548035 102.513C0.548035 91.283 8.15507 86.936 19.2941 86.936H50.446V95.177H21.7391C14.2221 95.177 7.70203 96.353 7.70203 105.41C7.70203 113.29 13.1361 117.817 23.6411 117.817H50.446V126.058H1.72906V117.817L8.69806 117.813Z" fill="#E63E3A"/>
<path d="M67.381 170.248V178.489H1.72906V170.248H9.06506C3.90306 167.26 0.552063 162.188 0.552063 154.309C0.552063 143.082 9.69808 133.482 25.9081 133.482C41.8461 133.482 51.264 143.082 51.264 154.309C51.264 162.188 47.914 167.26 42.751 170.248H67.381ZM44.1971 156.391C44.1971 147.971 37.5871 142.446 25.9041 142.446C14.2211 142.446 7.61102 147.97 7.61102 156.391C7.61102 163.727 13.0441 170.609 25.9041 170.609C38.7641 170.609 44.1971 163.727 44.1971 156.39V156.391Z" fill="#E63E3A"/>
<path d="M50.446 197.508H1.72406V189.269H50.446V197.508ZM67.381 197.508H57.4191V189.269H67.381V197.508Z" fill="#E63E3A"/>
<path d="M25.9041 251.842C8.24505 251.842 0.548035 239.797 0.548035 228.476C0.548035 217.155 8.24805 205.111 25.9041 205.111C43.5601 205.111 51.2601 217.156 51.2601 228.476C51.2601 239.796 43.5641 251.842 25.9041 251.842ZM7.79205 228.476C7.79205 235.995 13.4071 243.056 25.9041 243.056C38.9451 243.056 44.017 235.994 44.017 228.476C44.017 220.958 39.2171 213.897 25.9041 213.897C12.8641 213.899 7.79205 220.964 7.79205 228.479V228.476Z" fill="#E63E3A"/>
</svg>
