<svg width="46" height="51" viewBox="0 0 46 51" fill="none" xmlns="http://www.w3.org/2000/svg">
<path d="M44.858 17.2361H36.527C35.349 11.4361 30.369 7.36507 23.939 7.36507C16.695 7.36507 9.90302 13.0651 9.90302 25.2951C9.90302 37.6101 16.695 43.5871 23.939 43.5871C26.8864 43.6661 29.7731 42.7415 32.126 40.9647C34.4789 39.188 36.1583 36.6645 36.889 33.8081H45.403C43.683 42.9551 35.079 50.8351 23.668 50.8351C9.63103 50.8351 0.937012 40.2351 0.937012 25.3861C0.937012 10.8971 10.084 0.120079 24.484 0.120079C29.3806 0.00741334 34.1504 1.68317 37.9006 4.83367C41.6508 7.98417 44.1243 12.3934 44.858 17.2361Z" fill="#E63E3A"/>
</svg>
