<svg width="42" height="51" viewBox="0 0 42 51" fill="none" xmlns="http://www.w3.org/2000/svg">
<path d="M31.934 15.1489C30.576 9.3489 26.234 7.08688 20.434 7.08688C15.634 7.08688 10.201 8.80788 10.201 13.2459C10.201 17.1459 12.918 18.8619 17.627 19.8589L24.509 21.2149C33.384 22.8479 41.171 26.3769 41.171 35.7069C41.171 45.3959 32.478 50.8309 21.339 50.8309C8.56999 50.8309 1.41598 42.4069 0.419983 33.8949H9.11298C10.472 40.1419 14.276 43.8569 21.52 43.8569C27.769 43.8569 32.84 41.2309 32.84 36.6129C32.84 31.6309 28.221 29.7299 22.97 28.5509L15.724 27.1029C9.114 25.6529 1.87 22.7559 1.87 13.6079C1.87 5.00788 10.563 0.0258789 21.34 0.0258789C31.94 0.0258789 39 5.81989 40.54 15.1489H31.934Z" fill="#E63E3A"/>
</svg>
